/* XPM */
static char *result[] = {
/* columns rows colors chars-per-pixel */
"48 48 237 2 ",
"   c black",
".  c #010000",
"X  c #010100",
"o  c #000001",
"O  c #000101",
"+  c #010101",
"@  c #020101",
"#  c #020201",
"$  c #010102",
"%  c #020202",
"&  c #030302",
"*  c gray1",
"=  c #040303",
"-  c #040403",
";  c #040404",
":  c #050504",
">  c #060504",
",  c #070605",
"<  c #070707",
"1  c #080705",
"2  c #080707",
"3  c #080807",
"4  c #0A0906",
"5  c #090909",
"6  c #0C0A08",
"7  c #0D0B08",
"8  c gray5",
"9  c #0F0F0E",
"0  c gray6",
"q  c #110F0B",
"w  c #15120E",
"e  c #101010",
"r  c gray7",
"t  c #151515",
"y  c #1E1A14",
"u  c #181818",
"i  c #201C15",
"p  c #252018",
"a  c #28221A",
"s  c #2B261D",
"d  c #2D271E",
"f  c #342D23",
"g  c #373025",
"h  c gray20",
"j  c gray24",
"k  c #443B2E",
"l  c #473D30",
"z  c #473E30",
"x  c #4C4233",
"c  c #4D4334",
"v  c #4E4334",
"b  c #4E4435",
"n  c #4F4435",
"m  c #504535",
"M  c #514636",
"N  c #534737",
"B  c #554A39",
"V  c #564B3A",
"C  c #5A4E3D",
"Z  c #5E523F",
"A  c gray25",
"S  c #414141",
"D  c gray27",
"F  c #484848",
"G  c #4E4E4E",
"H  c #625542",
"J  c #685A46",
"K  c #695B47",
"L  c #6D5E49",
"P  c #70614C",
"I  c #786951",
"U  c #7F6E56",
"Y  c #656565",
"T  c #676767",
"R  c #6F6F6F",
"E  c gray45",
"W  c gray47",
"Q  c #797979",
"!  c gray49",
"~  c #7E7E7E",
"^  c gray50",
"/  c red",
"(  c #FF0101",
")  c #FF0202",
"_  c #FF0303",
"`  c #FF0404",
"'  c #FF0505",
"]  c #FF0606",
"[  c #FF0808",
"{  c #FF0909",
"}  c #FF0B0B",
"|  c #FF0D0D",
" . c #FF0E0E",
".. c #FF0F0F",
"X. c #FF1010",
"o. c #FF1B1B",
"O. c #FF2E2E",
"+. c #FF3030",
"@. c #FF3535",
"#. c #FF3737",
"$. c #FF3838",
"%. c #FF3939",
"&. c #FF3A3A",
"*. c #FF3B3B",
"=. c #FF3D3D",
"-. c #837259",
";. c #86755B",
":. c #8B785D",
">. c #8F7C60",
",. c #FF4343",
"<. c #FF6464",
"1. c #FE7171",
"2. c #FF7171",
"3. c #FF7474",
"4. c #FE7777",
"5. c #FF7A7A",
"6. c #FF7B7B",
"7. c #FF7C7C",
"8. c #FF7D7D",
"9. c #FE7E7E",
"0. c #FF7E7E",
"q. c #958264",
"w. c #988467",
"e. c #9C8769",
"r. c #B29A78",
"t. c #B39C79",
"y. c #B59E7A",
"u. c #B69E7B",
"i. c #B9A17D",
"p. c #BCA47F",
"a. c #808080",
"s. c gray51",
"d. c #838383",
"f. c gray52",
"g. c gray54",
"h. c #BFA681",
"j. c #AFAFAF",
"k. c gray71",
"l. c gray72",
"z. c gray74",
"x. c #FE8080",
"c. c #FE8383",
"v. c #FE8484",
"b. c #C1A882",
"n. c #C3A983",
"m. c #C4AA84",
"M. c #C5AB85",
"N. c #C6AC86",
"B. c #D0B58D",
"V. c #D1B68D",
"C. c #D2B68D",
"Z. c #D2B68E",
"A. c #D2B78E",
"S. c #D3B78E",
"D. c #D3B78F",
"F. c #D3B88F",
"G. c #D4B88F",
"H. c #D5B88F",
"J. c #D5B990",
"K. c #D6BA90",
"L. c #D7BA91",
"P. c #D7BB91",
"I. c #D8BB92",
"U. c #D8BC92",
"Y. c #D9BC92",
"T. c #D9BD93",
"R. c #DABD93",
"E. c #DABE93",
"W. c #DBBE94",
"Q. c #DCBF94",
"!. c #FEBBBB",
"~. c #FEBEBE",
"^. c #DDC095",
"/. c #DDC096",
"(. c #DEC096",
"). c #DEC196",
"_. c #DFC296",
"`. c #E0C297",
"'. c #E0C397",
"]. c #E1C398",
"[. c #E2C498",
"{. c #E2C499",
"}. c #E3C599",
"|. c #C3C3C3",
" X c #CBCBCB",
".X c gray87",
"XX c #FFC2C2",
"oX c #FFC4C4",
"OX c #FFC5C5",
"+X c #FFC8C8",
"@X c #FFCFCF",
"#X c #FFD1D1",
"$X c #FFD2D2",
"%X c #FFD3D3",
"&X c #FFD5D5",
"*X c gray88",
"=X c #E2E2E2",
"-X c #E6E6E6",
";X c gray92",
":X c gray93",
">X c #EEEEEE",
",X c #EFEFEF",
"<X c #FEE7E7",
"1X c #FEE8E8",
"2X c #FFEAEA",
"3X c #FFEDED",
"4X c #FFEEEE",
"5X c #FFEFEF",
"6X c gray96",
"7X c #F6F6F6",
"8X c #FFF2F2",
"9X c #FFF6F6",
"0X c #F9F9F9",
"qX c #FAF8F8",
"wX c #FAF9F9",
"eX c gray98",
"rX c #FBFBFB",
"tX c #FFF9F9",
"yX c #FCFBFB",
"uX c #FDFBFB",
"iX c #FEFAFA",
"pX c snow",
"aX c #FFFBFB",
"sX c #FAFDFD",
"dX c #FAFFFF",
"fX c gray99",
"gX c #FDFCFC",
"hX c #FDFDFD",
"jX c #FEFCFC",
"kX c #FFFCFC",
"lX c #FEFDFD",
"zX c #FFFDFD",
"xX c #FDFEFE",
"cX c #FEFEFE",
"vX c #FFFEFE",
"bX c #FEFFFF",
"nX c white",
/* pixels */
"J.J.J.J.J.J.J.J.J.J.J.J.J.J.J.J.J.J.J.J.J.J.J.J.J.J.J.J.J.J.J.J.J.J.J.J.J.J.J.J.J.J.J.J.J.J.J.J.",
"J.J.J.J.J.J.J.J.J.J.J.J.J.J.J.J.J.J.J.J.J.J.J.J.J.J.J.J.J.J.J.J.J.J.J.J.J.J.J.J.J.J.J.J.J.J.J.J.",
"J.J.J.J.J.J.J.J.J.J.J.J.J.J.J.J.J.J.J.J.J.J.J.J.J.J.J.J.J.J.J.J.J.J.J.J.J.J.J.J.J.J.J.J.J.J.J.J.",
"J.J.J.J.J.J.J.J.J.J.J.J.J.J.J.J.J.J.J.J.J.J.J.J.J.J.J.J.J.J.J.J.J.J.J.J.J.J.J.J.J.J.J.J.J.J.J.J.",
"J.J.J.J.J.J.J.J.J.J.J.J.J.J.J.J.J.J.J.J.J.J.J.J.J.J.J.J.J.J.J.J.J.J.J.J.J.J.J.J.J.J.J.J.J.J.J.J.",
"J.J.J.J.J.J.J.J.J.J.J.J.J.J.J.J.J.J.J.J.G.G.J.G.G.J.G.J.J.J.J.J.J.J.J.J.J.J.J.J.J.J.J.J.J.J.J.J.",
"J.J.J.J.J.J.J.J.J.J.J.J.J.J.J.J.J.J.G.G.J.G.S.Z.Z.G.J.G.G.J.J.J.J.J.J.J.J.J.J.J.J.J.J.J.J.J.J.J.",
"J.J.J.J.J.J.J.J.J.J.J.J.J.J.J.J.G.G.G.J.S.Z.Q.].'.L.V.G.J.G.G.J.J.J.J.J.J.J.J.J.J.J.J.J.J.J.J.J.",
"J.J.J.J.J.J.J.J.J.J.J.J.J.J.J.G.G.J.S.Z.W.[.r.B I B.{.J.V.G.J.G.G.J.J.J.J.J.J.J.J.J.J.J.J.J.J.J.",
"J.J.J.J.J.J.J.J.J.J.J.J.G.G.G.J.S.V.W.].u.V -     i -.V.[.J.Z.G.J.G.G.J.J.J.J.J.J.J.J.J.J.J.J.J.",
"J.J.J.J.J.J.J.J.J.J.G.G.G.J.D.V.R.[.i.C ,   %   X     p ;.D.].J.Z.G.J.G.G.J.J.J.J.J.J.J.J.J.J.J.",
"J.J.J.J.J.J.J.J.J.G.G.J.F.V.T.[.p.Z 4   %     u ;   &     a :.H.].G.C.G.J.G.G.J.J.J.J.J.J.J.J.J.",
"J.J.J.J.J.J.J.G.G.J.F.V.Y.}.h.H 6   $     t d.,X XG     *     s >.P.].G.Z.G.J.G.G.J.J.J.J.J.J.J.",
"J.J.J.J.J.G.G.J.F.V.U.{.m.J 7   O     r ! >XnXnXnXnX|.F     &     d q.Y.`.G.Z.G.J.G.G.J.J.J.J.J.",
"J.J.J.J.J.G.J.G.I.[.M.L q   O     e W -XnXnXrXhXfXfXnXnXz.D     =     f w.T._.G.G.J.G.J.J.J.J.J.",
"J.J.J.J.J.J.G.P.N.P w   o     8 E =XnXnXrXuXpXiXiXiXyXhXnXnXl.A     =     g e.J.J.G.J.J.J.J.J.J.",
"J.J.J.J.J.F.U.n.y     .   5 R *XnXnXrXhXzXbXbXbXbXbXnXcXfXhXnXnXk.j     @     K (.A.G.J.J.J.J.J.",
"J.J.J.J.J.S.W.t.  +   < T .XnXnXrXhXvXjXbX!.1.0.5.9.<XbXvXcXrXhXnXnXj.h   >   z ^.S.G.J.J.J.J.J.",
"J.J.J.J.J.D.W.u.,   2  XnXnXrXhXnXcXcXpXbX2./ / / / @XbXjXcXnXcXrXhXnXnXY     c ^.S.G.J.J.J.J.J.",
"J.J.J.J.J.D.W.y.>   e 7XnXfXcXnXcXcXvXpXnX0./ { _ { %XnXzXcXcXcXnXcX7XnXf.    x ^.S.G.J.J.J.J.J.",
"J.J.J.J.J.D.W.y.>   9 :XnXcXbXcXlXzXzXtXnX6./ ' / ` #XnXkXzXzXcXcXcXeXnX^     x ^.S.G.J.J.J.J.J.",
"J.J.J.J.J.D.W.y.>   0 ,XnXxXcXnXnXnXnXvXnX8./ ' / ` &XnXnXnXnXnXnXcXeXnXa.    x ^.S.G.J.J.J.J.J.",
"J.J.J.J.J.D.W.y.>   0 ,XnXhXnXpX5X5X5X2XnX3./ ' / ` OX9X3X5X4X8XvXbXeXnXa.    x ^.S.G.J.J.J.J.J.",
"J.J.J.J.J.D.W.y.>   0 ,XnXuXnX+X .|  .| ..] / / / / }  . .X.` ,.zXbXwXnXa.    x ^.S.G.J.J.J.J.J.",
"J.J.J.J.J.D.W.y.>   0 ,XnXuXnXoX/ / / / / / / / / / / / / / / @.vXbXwXnXa.    x ^.S.G.J.J.J.J.J.",
"J.J.J.J.J.D.W.y.>   0 ,XnXuXnXOX_ ) _ _ _ ( / / / / ) _ _ ' / *.vXbXwXnXa.    x ^.S.G.J.J.J.J.J.",
"J.J.J.J.J.D.W.y.>   0 ,XnXuXnXXX/ / / / / / / / / / / / / / / +.vXbXwXnXa.    x ^.S.G.J.J.J.J.J.",
"J.J.J.J.J.D.W.y.>   0 ,XnXgXnX#X%.$.%.#.=.o./ ( / ( O.&.$.&.+.<.vXbXwXnXa.    x ^.S.G.J.J.J.J.J.",
"J.J.J.J.J.D.W.y.>   0 ,XnXhXnXvXvXvXzXtXnX6./ ' / ` #XnXkXvXvXvXvXbXeXnXa.    x ^.S.G.J.J.J.J.J.",
"J.J.J.J.J.D.W.y.>   0 ,XnXxXvXnXnXnXnXaXnX7./ ' / ` %XnXzXnXnXnXnXcXeXnXa.    x ^.S.G.J.J.J.J.J.",
"J.J.J.J.J.D.W.y.>   0 ,XnXhXnXvXvXvXvXtXnX6./ ' / ` $XnXkXvXvXvXvXcXeXnXa.    x ^.S.G.J.J.J.J.J.",
"J.J.J.J.J.D.W.y.>   0 ,XnXhXnXnXnXnXvXpXnX0./ { ) [ %XnXzXvXnXnXnXcXeXnXa.    x ^.S.G.J.J.J.J.J.",
"J.J.J.J.J.D.W.y.>   0 ,XnXhXnXnXnXnXvXpXnX2./ / / / @XnXkXvXnXnXnXcXeXnXa.    x ^.S.G.J.J.J.J.J.",
"J.J.J.J.J.D.W.y.>   0 ,XnXhXcXcXcXcXcXjXbX~.4.v.x.c.1XbXcXcXcXcXcXcXeXnXa.    x ^.S.G.J.J.J.J.J.",
"J.J.J.J.J.D.W.y.>   9 ;XcX0XeXeXeXeXeXeXqXdXdXdXdXdXsXwXeXeXeXeXeXeX6XnX~     x ^.S.G.J.J.J.J.J.",
"J.J.J.J.J.D.W.y.>   e nXnXnXnXnXnXnXnXnXnXnXnXnXnXnXnXnXnXnXnXnXnXnXnXnXg.    x ^.S.G.J.J.J.J.J.",
"J.J.J.J.J.D.W.y.:   3 Q s.a.a.a.a.a.a.a.a.a.a.a.a.a.a.a.a.a.a.a.a.a.~ g.S     x ^.S.G.J.J.J.J.J.",
"J.J.J.J.J.D.W.u.1 + #                                                     ,   b ^.S.G.J.J.J.J.J.",
"J.J.J.J.J.S.W.t.                                                              k /.S.G.J.J.J.J.J.",
"J.J.J.J.J.G.U.b.N v m n n n n n n n n n n n n n n n n n n n n n n n n n n M l U R.F.G.J.J.J.J.J.",
"J.J.J.J.J.J.G.K.(.).(.(.(.(.(.(.(.(.(.(.(.(.(.(.(.(.(.(.(.(.(.(.(.(.(.(.(.(.).E.G.J.J.J.J.J.J.J.",
"J.J.J.J.J.G.J.G.S.S.S.S.S.S.S.S.S.S.S.S.S.S.S.S.S.S.S.S.S.S.S.S.S.S.S.S.S.S.A.D.J.G.G.J.J.J.J.J.",
"J.J.J.J.J.G.J.G.G.G.G.G.G.G.G.G.G.G.G.G.G.G.G.G.G.G.G.G.G.G.G.G.G.G.G.G.G.G.G.G.J.G.G.J.J.J.J.J.",
"J.J.J.J.J.J.J.J.J.J.J.J.J.J.J.J.J.J.J.J.J.J.J.J.J.J.J.J.J.J.J.J.J.J.J.J.J.J.J.J.J.J.J.J.J.J.J.J.",
"J.J.J.J.J.J.J.J.J.J.J.J.J.J.J.J.J.J.J.J.J.J.J.J.J.J.J.J.J.J.J.J.J.J.J.J.J.J.J.J.J.J.J.J.J.J.J.J.",
"J.J.J.J.J.J.J.J.J.J.J.J.J.J.J.J.J.J.J.J.J.J.J.J.J.J.J.J.J.J.J.J.J.J.J.J.J.J.J.J.J.J.J.J.J.J.J.J.",
"J.J.J.J.J.J.J.J.J.J.J.J.J.J.J.J.J.J.J.J.J.J.J.J.J.J.J.J.J.J.J.J.J.J.J.J.J.J.J.J.J.J.J.J.J.J.J.J.",
"J.J.J.J.J.J.J.J.J.J.J.J.J.J.J.J.J.J.J.J.J.J.J.J.J.J.J.J.J.J.J.J.J.J.J.J.J.J.J.J.J.J.J.J.J.J.J.J."
};