/* XPM */
static char *result[] = {
/* columns rows colors chars-per-pixel */
"48 48 190 2 ",
"   c black",
".  c #151514",
"X  c #171717",
"o  c #141B1C",
"O  c #1C1D1D",
"+  c #251F1E",
"@  c #1D2317",
"#  c #003B1E",
"$  c #101D25",
"%  c #1C1E23",
"&  c #351F20",
"*  c #1C2424",
"=  c #1B2929",
"-  c #0C2537",
";  c #242424",
":  c #2B2524",
">  c #262929",
",  c #2B2B2B",
"<  c #342122",
"1  c #322C2B",
"2  c #29302F",
"3  c #35312E",
"4  c #2D2F31",
"5  c #2B3234",
"6  c #343433",
"7  c #393936",
"8  c #393738",
"9  c #3B3B3B",
"0  c #471A1A",
"q  c #581A1B",
"w  c #671618",
"e  c #74121A",
"r  c #6B2719",
"t  c #441F21",
"y  c #4B1F20",
"u  c #541D20",
"i  c #413D35",
"p  c #403F3F",
"a  c #0F692A",
"s  c #5A4B17",
"d  c #636E1D",
"f  c #4A4A30",
"g  c #43403C",
"h  c #4B453C",
"j  c #0C2940",
"k  c #394040",
"l  c #0E7B4C",
"z  c #28645D",
"x  c #2F4D61",
"c  c #434343",
"v  c #484746",
"b  c #4F4940",
"n  c #4B4A4A",
"m  c #544C43",
"M  c #5B5245",
"N  c #5B554C",
"B  c #514F50",
"V  c #525454",
"C  c #585B5C",
"Z  c #625A4D",
"A  c #6C6351",
"S  c #796C5A",
"D  c #7D715E",
"F  c #455567",
"G  c #5E6060",
"H  c #6E6F6D",
"J  c #757878",
"K  c #881118",
"L  c #A6030C",
"P  c #B80000",
"I  c #A70A15",
"U  c #B90715",
"Y  c #AB2B06",
"T  c #B01E2E",
"R  c #BB2A2B",
"E  c #C30000",
"W  c #CD0002",
"Q  c #C6070F",
"!  c #D90107",
"~  c #DB030E",
"^  c #CA0813",
"/  c #D40010",
"(  c #DC0411",
")  c #D01512",
"_  c #E6060A",
"`  c #F11907",
"'  c #E30614",
"]  c #EC0311",
"[  c #F10313",
"{  c #DA260B",
"}  c #DD3400",
"|  c #F0390E",
" . c #CE272D",
".. c #BC4B15",
"X. c #87750C",
"o. c #9D7628",
"O. c #B03F4D",
"+. c #B24F4F",
"@. c #82745E",
"#. c #8B7B63",
"$. c #967C69",
"%. c #BF7572",
"&. c #74A75A",
"*. c #B5A73E",
"=. c #CDAB00",
"-. c #D1A000",
";. c #EFAF00",
":. c #E5BD00",
">. c #DEC100",
",. c #F9CA01",
"<. c #F9D203",
"1. c #D8C33F",
"2. c #F2D03E",
"3. c #85A85F",
"4. c #938269",
"5. c #9A886D",
"6. c #9E8C71",
"7. c #A18D6F",
"8. c #AC9777",
"9. c #B49D7C",
"0. c #8EAB66",
"q. c #97B06D",
"w. c #9DAC70",
"e. c #B9A17F",
"r. c #C58443",
"t. c #D5BE46",
"y. c #CDAE60",
"u. c #00528E",
"i. c #2A638B",
"p. c #327AAF",
"a. c #3AA2BC",
"s. c #7A8E90",
"d. c #578AA9",
"f. c #529CD2",
"g. c #5BBEC8",
"h. c #51A8E0",
"j. c #60ABE9",
"k. c #6ACAD5",
"l. c #71CCDA",
"z. c #7BDBEC",
"x. c #868D90",
"c. c #B59087",
"v. c #A79597",
"b. c #BDA581",
"n. c #ADB38B",
"m. c #93ABB0",
"M. c #A4A7A8",
"N. c #ABB3B5",
"B. c #C18C8B",
"V. c #C3AA85",
"C. c #CDB28B",
"Z. c #C8B689",
"A. c #D3B78D",
"S. c #D4B88F",
"D. c #CEB997",
"F. c #D5B990",
"G. c #DABC93",
"H. c #D3BC9B",
"J. c #CEBEA4",
"K. c #CFB9AD",
"L. c #DEC095",
"P. c #E2C498",
"I. c #CFC2A7",
"U. c #CBC1AF",
"Y. c #D4C2A4",
"T. c #D2C4AA",
"R. c #D4CBAE",
"E. c #C9C7B7",
"W. c #D4C8B5",
"Q. c #D5CEBC",
"!. c #99CFD0",
"~. c #BDC5C6",
"^. c #8AD7E3",
"/. c #97DDEA",
"(. c #BFEBF3",
"). c #CCCBC3",
"_. c #C4C9CB",
"`. c #C9CDCA",
"'. c #D2CFC5",
"]. c #D7D2C6",
"[. c #C7CED1",
"{. c #C9D1D4",
"}. c #CAD6D4",
"|. c #CAD4D9",
" X c #CDDADD",
".X c #D8DAD4",
"XX c #D4E4DF",
"oX c #D9DCE0",
"OX c #CEE0E0",
"+X c #D8E0E8",
/* pixels */
"F.F.F.F.F.S.F.F.F.F.F.F.F.F.F.F.F.F.F.F.F.F.F.F.F.F.F.F.F.S.S.F.F.F.F.F.F.F.F.F.F.F.F.S.F.F.F.F.",
"F.F.F.F.F.F.F.F.F.F.F.F.F.F.F.F.F.F.F.F.F.F.F.F.F.F.F.F.G.S.F.F.F.F.F.F.S.F.F.F.F.F.F.F.F.F.F.F.",
"F.F.F.F.F.F.F.F.F.F.F.F.F.F.F.F.F.F.F.F.F.F.F.F.F.F.F.F.F.F.F.F.F.F.F.F.F.S.F.F.F.F.F.F.F.F.F.S.",
"F.F.F.F.F.F.F.F.F.F.S.F.F.F.S.F.F.F.F.F.F.F.F.F.F.F.F.F.F.F.F.F.F.F.F.F.G.S.F.F.F.F.F.F.F.F.F.S.",
"F.F.F.F.F.F.F.F.F.F.F.F.F.F.F.F.G.S.F.F.F.F.F.F.F.F.F.F.F.G.S.S.F.F.S.F.F.F.S.F.F.F.F.F.F.F.S.G.",
"F.F.F.F.F.F.F.F.F.F.F.F.F.F.F.F.S.S.F.F.F.S.F.S.S.S.F.S.F.F.F.S.F.F.F.F.F.F.F.F.S.G.F.F.F.F.F.F.",
"F.F.F.F.F.F.F.S.F.F.F.F.F.F.F.F.F.F.F.F.F.S.F.S.S.S.F.S.F.F.F.F.F.F.F.F.F.F.F.F.S.S.F.F.F.F.F.F.",
"F.F.F.F.F.F.F.F.F.F.F.F.F.F.F.F.F.F.F.F.S.S.S.S.F.S.S.S.F.S.S.F.F.F.F.F.F.F.F.F.F.F.F.F.F.F.F.F.",
"G.S.F.F.F.F.F.F.F.F.F.F.F.F.F.F.F.F.F.F.S.S.F.S.V.S.S.G.A.S.S.S.F.F.F.F.F.F.F.F.F.S.F.F.F.F.F.F.",
"S.S.F.F.F.F.F.F.F.F.F.F.F.F.F.F.F.S.S.S.S.S.G.e.i V.G.V.S.S.S.S.F.F.F.F.F.F.F.F.F.F.F.F.F.F.F.F.",
"F.F.F.F.F.F.F.F.F.F.S.S.F.S.A.A.S.S.S.S.S.A.P.$.. M i 7.G.S.S.S.S.S.F.S.S.F.F.F.F.F.F.F.F.F.S.F.",
"F.F.F.F.F.F.S.S.F.S.S.S.F.S.A.D.F.F.F.P.P.G.V.i . , #.P.G.F.S.S.S.S.S.S.S.S.F.S.S.F.F.F.F.F.F.F.",
"F.F.F.F.F.S.F.S.S.S.S.F.F.G.L.L.S.C.b.4.S m i : O h #.6.b.C.G.P.L.L.F.S.S.S.F.S.S.F.F.F.F.F.F.F.",
"S.G.F.F.F.F.F.S.G.G.G.S.V.9.4.S N i , $ @ f J M.M.C . X ; 7 h S 4.8.V.C.F.G.S.S.F.F.F.F.F.F.F.F.",
"S.F.F.F.S.S.S.F.V.6.D Z v p 9 8 4 = + 0 o.2.*.A 7 5 j - O O O O ; ; 3 h N 8.G.S.S.S.F.F.F.F.F.F.",
"S.F.F.F.S.S.G.b.i > % > 9 v c 6 : w U ( )  ...d # u.p.i.$ . ; : ; ; ; O X h S.F.S.S.F.F.F.F.F.F.",
"F.F.F.F.S.A.L.5.O 6 , O + > ; * & U ] ] ] ( L r l h.f.p.x   X : ; > ; > ; 3 e.G.S.S.S.S.F.F.S.F.",
"F.F.F.F.S.A.P.S ; , g 6 O X O : 6 1 u K Q Q L I a a.j.d.x O ; > ; % + , ; ; 5.L.S.S.F.F.F.F.F.F.",
"F.F.F.F.S.S.F.N , > 9 p 7 ; O X ; 8 8 5 1 y w r a z F 4 , 6 8 , O + 7 ; > ; D G.S.S.F.F.F.F.F.F.",
"F.F.F.S.S.F.C.h , 4 5 v 8 7 4 , X o , 9 8 k k 6 6 3 8 p 9 8 > O O 9 > O 6 O Z G.S.S.S.F.F.F.F.F.",
"F.F.F.S.S.G.b.9 , 8 > v c 9 6 , 7 > O ; 6 p n B V n v 9 3 ; O + 9 , ; + 9 ; h C.F.S.F.F.F.F.F.F.",
"F.F.F.F.F.G.6.8 , 9 1 6 n 9 9 6 > 6 6 ; + , 7 9 9 9 8 > ; O > 9 , ; * , 9 ; 3 V.F.S.S.F.F.F.F.F.",
"F.F.F.S.S.L.#.6 > 9 9 ; 9 v 9 9 , ; ; > ; O ; , 6 1 > * ; 6 9 , ; 6 O p 9 , ; 9.L.S.S.S.F.F.F.F.",
"F.F.F.S.S.G.D 4 ; 9 p > ; v p 9 8 ; ; ; ; ; ; ; ; ; + , 9 9 , ; 8 : > v 9 6 * 5.L.S.S.S.S.F.S.F.",
"F.F.F.S.S.F.A > ; 6 v 6 % , c 9 9 > > : ; ; ; ; ; ; 8 v 9 , ; 6 9 X 9 c 9 6 O @.G.A.S.S.S.S.S.S.",
"F.F.F.S.S.F.M % ; ; p p , O 6 9 9 , > 6 ; ; ; ; 6 v n 9 , ; , v ; O v 9 9 7 O A L.D.S.G.F.S.S.S.",
"F.F.F.S.F.F.b % ; ; ; 9 7 O % 6 p 6 ; 7 , > 7 9 v k 9 > ; % 8 9 X > c 9 9 , O m S.S.F.w.Z.S.S.L.",
"F.F.F.S.S.F.m O > ; ; ; 8 , O ; 7 8 ; , 9 , , 8 8 6 > ; ; , 9 > X 7 9 7 > ; O m C.S.G.0.0.G.S.S.",
"F.F.S.A.S.G.c.3 ; ; > ; > 7 ; O , 8 : ; 9 7 O ; , ; ; > ; , 6 O ; 9 3 ; > = q +.D.G.C.q.&.S.S.S.",
"F.Z.L.S.S.D.OXs.& 1 ; % % 2 , O % > > ; 6 c ; % ; ; ; : ; 1 ; ; 2 2 * * < e !  .n.3.3.q.b.F.S.S.",
"S.F.S.A.Y..X/.k.T Y X.s s 0 t ; * ; ; ; > 9 7 + ; ; ; ; ; > ; ; > & w I ^ [ ' W 4.n.J.H.F.S.F.S.",
"F.S.A.R.OX(.^.k. .` :.=.-.{ / 0 * : ; ; ; 4 9 , * ; ; ; ; ; : = q ~ [ ] ] ' ( E +.[.{.[.).H.S.F.",
"F.S.T.XX!.g.g.k.O._ <.>.:.| [ q * ; ; ; ; ; 6 9 > + ; ; ; ; ; = w _ ~ ~ ( ( W P I M. X{.|.Q.S.S.",
"F.Z.R.}.!.l.l.k. .` ,.,.,.| ' u ; > > ; ; ; ; 6 9 > ; ; > ; : = w ! W E E E P R c.`.[.`.`.J.S.F.",
"S.S.L.Q.E.^.z.k.U } ,.,.;.Q L + O O * ; > ; > ; , 6 > : > ; ; o q )  .O.+.%.B.K.R.Y.W.T.F.S.F.F.",
"L.S.S.T.Q.E.!.m.O.r.1.t.y.B.c.s.G c 6 O @ + O O O O O O O O , C v.K.`.E.I.R.Q.R.H.H.Q.Y.A.F.F.S.",
"A.S.S.S.F.S.A.E. X{.{.{.{. X X X[.~.N.M.x.J H G V V n B N H M.[.|.[.I.F.]..XoX+X).S.A.S.F.F.S.F.",
"S.S.F.F.S.F.A.Y._.{.|.{.{.[._.K.Y.I.T.W.Q.)._.`.`.E.J.D.H.L.Y.I.D.D.A.H.]..X'.W.H.S.F.F.S.F.F.F.",
"S.F.S.F.S.F.F.S.F.J.T.U.U.J.F.S.A.A.A.A.C.F.S.F.H.S.S.G.S.S.A.A.S.S.F.S.S.F.A.S.S.F.F.F.S.F.F.F.",
"S.S.F.F.F.F.S.F.S.S.A.A.A.S.S.S.S.S.S.F.F.F.S.S.S.S.S.S.S.S.S.S.S.S.S.F.F.S.F.F.F.F.F.F.F.F.F.F.",
"F.F.F.F.F.F.F.S.F.F.F.F.F.F.F.S.F.F.F.F.F.F.F.F.F.F.F.F.F.S.F.F.F.S.S.F.S.S.F.F.F.F.F.F.F.F.S.F.",
"F.F.F.F.F.F.F.F.F.S.F.F.F.F.F.F.F.F.F.F.F.F.F.F.F.F.F.S.F.F.F.F.F.F.F.F.S.G.F.F.F.F.F.F.F.F.F.F.",
"F.F.F.F.F.S.F.F.F.F.F.F.F.F.F.F.S.S.F.F.F.F.F.F.F.F.F.F.F.F.F.F.F.F.F.F.F.F.F.F.F.F.F.F.F.F.F.F.",
"F.F.F.F.F.F.F.F.F.F.F.F.F.F.F.F.S.G.F.F.F.S.F.F.F.F.F.F.F.F.F.F.F.F.F.F.F.F.F.F.F.F.F.F.F.F.F.F.",
"F.F.S.F.F.F.F.F.F.F.F.F.F.F.F.F.F.F.F.F.F.F.F.F.F.F.F.F.S.F.F.F.F.F.F.F.F.F.F.F.F.F.F.F.F.F.F.F.",
"F.F.F.F.F.F.F.F.F.F.F.F.F.F.F.F.F.F.F.F.F.F.F.F.F.F.F.F.F.F.F.F.S.F.F.F.F.F.F.F.F.F.F.F.F.F.F.F.",
"F.F.F.F.F.F.F.F.F.F.F.F.F.F.F.F.F.F.S.G.F.F.F.F.F.F.F.F.F.F.F.F.F.F.F.F.F.F.F.S.F.F.F.F.F.F.F.F.",
"F.F.F.F.F.F.S.F.F.F.F.F.F.F.F.F.F.S.S.F.F.F.F.F.F.F.S.F.F.F.F.F.F.F.F.F.F.F.F.F.F.F.F.F.F.F.S.F."
};
