/* XPM */
static char *_c77cdcef5254d62a4794fe8505b89022sfhILErHqGnsDsj[] = {
/* columns rows colors chars-per-pixel */
"48 48 93 2 ",
"   c #565E0B",
".  c #5B5F0B",
"X  c #57600C",
"o  c #5D610B",
"O  c #62640B",
"+  c #69660C",
"@  c #66690C",
"#  c #6A6C0D",
"$  c #736C0C",
"%  c #796F0C",
"&  c #6E710E",
"*  c #72760E",
"=  c #7B700D",
"-  c #76790F",
";  c #797C0F",
":  c #7A7D10",
">  c #84740D",
",  c #8A760D",
"<  c #8C780D",
"1  c #947C0D",
"2  c #9B7E0E",
"3  c #7D810F",
"4  c #7E8110",
"5  c #9D800E",
"6  c #838611",
"7  c #868A11",
"8  c #898D12",
"9  c #8E9313",
"0  c #919614",
"q  c #939814",
"w  c #AE870E",
"e  c #B1870D",
"r  c #B5890C",
"t  c #BC8D0D",
"y  c #C7920D",
"u  c #CD940D",
"i  c #D3970D",
"p  c #D7990E",
"a  c #DD9A0D",
"s  c #E39E0C",
"d  c #EDA20B",
"f  c #FDA605",
"g  c #FFAA05",
"h  c #F5A409",
"j  c #FAA70A",
"k  c #FFAB0B",
"l  c #FDAA13",
"z  c #F5AA1E",
"x  c #FBAB1B",
"c  c #F6AB24",
"v  c #F1AB2D",
"b  c #F3AC2C",
"n  c #EDAD37",
"m  c #ECAD3A",
"M  c #EBAE3F",
"N  c #ECAE3C",
"B  c #EAAF46",
"V  c #E8AF4B",
"C  c #EDB043",
"Z  c #EDB044",
"A  c #E7B04F",
"S  c #EBB148",
"D  c #E6AF53",
"F  c #E4B153",
"G  c #E6B052",
"H  c #E4B157",
"J  c #E3B15A",
"K  c #E3B25B",
"L  c #DFB366",
"P  c #DEB36B",
"I  c #DDB46D",
"U  c #DCB573",
"Y  c #DEB673",
"T  c #DBB576",
"R  c #DAB577",
"E  c #DBB578",
"W  c #D8B67D",
"Q  c #E0B263",
"!  c #E0B366",
"~  c #D7B784",
"^  c #D7B787",
"/  c #D8B781",
"(  c #D7B887",
")  c #D6B789",
"_  c #D6B889",
"`  c #D4B88F",
"'  c #D5B88F",
"]  c #D5B98F",
"[  c #D4B890",
"{  c #D5B990",
"}  c #D3B995",
"|  c #D2B997",
" . c #D2BA98",
/* pixels */
"{ { { { { { { { { { { { ] { ' ' [ ' ' ' ] ] ] ] _ ] ] ] ] ] ] ` ' ] ] ] ] { { { { { { { { { { { ",
"{ { { { { { { { { { { ] ' [ ] ] ' ' [ [ |  .| | |  .| | { ` ' ] ' ' ] ' ] { { { { { { { { { { { ",
"{ { { { { { { { { ' ' ' [ ' ' [ | | ) R Q G C B C S H P W ) | | ] ' ] ] ' ' ] { { { { { { { { { ",
"{ { { { { { { { ' ] ' ] ' { | ^ ! N x k g g g g g f g k l c B U ] | ] ] [ ' ' ' { { { { { { { { ",
"{ { { { { { ] ] ] [ ] ] | ( G c k g h i e 2 < > , < 2 t a h g k v Q { } ] ] [ ] ' { { { { { { { ",
"{ { { { { ] ' ' [ ] [ | K z g j y < + o     o o o o X   O $ 2 a f k v R | ] ] ` ' ' { { { { { { ",
"{ { { { ' ' ' { ] [ ^ n k k t = o   O - 6 8 9 9 9 8 8 6 * o   O , p k k D [ [ ` [ ] ' { { { { { ",
"{ { { ] ' ] ' ' | E z g a >   o O @ 8 q q 0 0 0 q 0 0 q 0 3 O O   o 2 h g m ] { ] ' ' ' { { { { ",
"{ { { ' { [ ] | Y l f t +   - 8 ; o 7 0 9 0 0 0 0 0 9 8 q - O 7 6 #   % a g v _ [ ' [ ] ' { { { ",
"{ { ' ] [ { | R l k w   @ 7 0 q 0 @ & 0 9 9 0 0 0 0 0 0 9 @ - 0 0 0 6 X + u g v ] [ ] ` ] ' { { ",
"{ { ' [ { [ ( z g w   & 9 0 9 9 q ; O 7 0 0 0 0 0 q 0 q ; o 7 0 9 9 q 7 O O i g M | ' ] ' ] { { ",
"{ ` ' ' { [ n g t   & 9 0 9 0 9 0 8 . * 0 0 0 0 0 8 0 9 @ # 8 0 0 0 0 0 7 O # s g K | ] [ ' ' { ",
"{ ] [ ] | K g a + @ 9 0 0 0 0 0 0 9 # o ; 0 q 0 0 0 8 * o ; q 9 0 0 0 9 q 7   > j x / ` ' ' ] { ",
"{ [ { [ ) z k >   7 0 9 0 0 0 0 9 0 # O O # * - * * # O O ; 0 0 0 0 9 9 0 0 :   w g m | ' ' ' ] ",
"] ' ' | F g t   - 0 0 9 0 0 0 9 0 8 @ O O o . . o . . O O & 0 9 9 0 0 9 9 0 9 @ + s k R [ ] ' ' ",
"] ' [ ) c j % o 8 q 9 0 0 9 9 0 0 & o O # ; ; 3 3 ; * # o O ; q 9 0 0 0 0 9 0 4   2 g m | ' ] ' ",
"' ]  .L k y o O 3 9 q 0 0 9 0 9 * . @ 6 0 0 q 0 q q q 9 ; O o 3 q 9 9 9 q q 9 * o $ d x ^ { ] ] ",
"' ] | N g < X @ o + ; 7 9 0 8 & . # 8 0 0 9 9 0 9 9 9 0 q 3 O O - 9 q 9 6 - O O @   r k Q | ] ' ",
"' { ) x d # O 8 6 & o o # & + . @ 8 q 9 0 0 9 0 0 0 9 9 9 q 3 O O @ & @   O * 8 6   < g N | ' ' ",
"' | E k i . - q q q 7 * O o O O 3 0 9 0 0 0 0 0 0 0 0 0 0 9 q & o o o O ; 9 0 q 9 @ $ h c ) { ' ",
"' | Q k e   7 q 9 9 q q : O O # 0 9 0 0 0 0 0 0 0 0 0 0 q 9 0 8 + o + 8 q 0 9 9 q - O s l / { [ ",
"' | D g 2 X 8 0 9 0 9 9 0 # . : 0 0 0 0 0 0 0 0 0 0 0 0 0 0 9 0 * . - q 9 0 0 0 0 6   u k R { ] ",
"] | S g , X 9 0 0 0 q 9 q * O 6 q 9 0 0 0 0 0 0 0 0 0 0 q 9 0 q -   4 q 9 0 0 0 0 6   r k P | ] ",
"] ] B f > o 9 0 0 0 q 9 q * . 6 q 9 0 0 0 0 0 0 0 0 9 q 9 0 9 q - o 4 q 9 0 0 9 q 6   e k L | ] ",
"' | C g > o 9 9 0 0 0 0 0 * . 6 0 0 0 0 0 0 0 0 0 0 0 0 0 0 0 0 - . 6 q 9 0 0 0 q 7   e k L | ' ",
") | V g 1 o 9 9 0 0 0 9 0 * . 6 0 0 0 0 0 0 0 0 0 0 0 0 0 0 0 0 - o ; q 9 0 0 0 q 6   t k I | ] ",
"] | H g 2 X 7 0 0 0 0 0 9 +   - 0 0 0 0 0 0 0 0 0 0 0 0 0 0 0 0 # o * q 0 9 0 9 q ;   u k W ` { ",
"] | P k t   6 q 9 0 0 9 * O O @ 8 0 0 0 0 0 0 0 0 0 0 0 0 0 q 4 o @ O ; 0 q 9 9 q * + d x ^ ' ' ",
"] | W l a O & q 0 9 : O o o O O - 0 0 0 0 0 0 0 9 0 0 0 0 0 0 # o O o o # 6 0 q 9 o % j v ] ] ' ",
"] ] _ c h $ O ; - O . # : : & o @ 4 0 9 9 0 0 0 0 0 0 0 0 0 * o O - 3 * O . # 3 ;   1 f B | ' ' ",
"' ' | B f 2 X O O - 7 9 0 q 0 - o O 4 q 0 9 0 0 0 0 0 0 0 * o @ 6 q q q 9 6 & o O o u k I | ] [ ",
"] ' | Y k a O @ 7 q 0 0 0 0 0 q : o @ * 8 0 0 0 0 0 9 7 & o @ 7 q 9 9 9 9 0 q 3 o % f c ] ` ' ' ",
"' ' ] ' v f ,   6 q 9 0 9 0 9 9 q ; o o @ # & * & & # O o O 6 q 9 9 0 0 0 8 q ;   e g D | ' ' ' ",
"' ' ' | L k p o # q 9 0 0 0 0 0 9 9 @ O O o o o o . o O O * q 9 0 0 0 0 0 0 8 O = h l ^ ] ] ` ] ",
"] ] ' ] ] v g 2   6 0 0 9 0 0 0 9 9 # O @ - ; 6 3 3 * O o 4 q 9 0 0 0 0 0 0 *   y f A | ' ] ' { ",
"] ' ] ' | R k h % o 7 0 9 9 0 0 9 0 @ O 7 q q q q q q ; o * q 9 0 0 0 9 q ;   2 k c ] { ' ` { { ",
"] ] ' [ ' | D k a @ O 7 q 0 9 9 0 7 . - q 9 0 0 9 9 9 0 # @ 9 9 9 0 0 q ;   > j j I | ] ` ' ' { ",
"{ ] ' ' ' ' [ n g u O O 6 q 0 9 0 * O 9 0 9 0 0 0 0 9 q 4 o 6 q 9 0 0 :   > d k K | ' [ ] ' { { ",
"{ { ] ] ` ] [ ] v g i # o ; 8 q 0 O * 0 9 0 0 0 0 0 0 9 9 @ & q 0 8 *   > d g V | ] ] ' ' { { { ",
"{ { { ' ] ` ] [ _ v g s %   @ 6 - O 7 0 0 0 0 q 0 0 9 9 q 4 o 4 ; o   5 j g V | ' [ [ ' ' { { { ",
"{ { { { ' ' ] ' { ] M g j w @   o @ 6 9 q q q q 9 q q 9 8 ; O o   $ y g k K | ' ' { ' ' { { { { ",
"{ { { { { ' ] { ] [ ' K x g s 2 $     @ - 6 6 6 7 7 3 * o   o % e h g c Y | ' ' { ' ' { { { { { ",
"{ { { { { { ' ' [ ] ] | W m k g h r < $ O           o O % 1 u j g x A ] | ' ' [ ] ' { { { { { { ",
"{ { { { { { { ' ] [ ] ' [ | R M x g g h s y r w e t u d j g k c A ^ | ' ' ' ' ' ' { { { { { { { ",
"{ { { { { { { { ' ' ' [ [ ' | } ^ L m c x l k k g k l x v B I ' | ] ' ' [ ] ' ' { { { { { { { { ",
"{ { { { { { { { { ' ] ' [ [ ' ' [ | | ) ( E I L L Y / ( ' | | { ] ] ' ` ] ' { { { { { { { { { { ",
"{ { { { { { { { { { { ' ] ' ] ' ] ] ] [ { [ | | | | { [ { ' ' ' ' [ ' ] ' { { { { { { { { { { { ",
"{ { { { { { { { { { { ] ] ] ' ' ` ] ] ] ] ] _ ] ] ] { { ' ' ] ' { ' ] ] { { { { { { { { { { { { "
};
