/* XPM */
static char *result[] = {
/* columns rows colors chars-per-pixel */
"48 48 66 1 ",
"  c #33332E",
". c #363631",
"X c #383732",
"o c #373935",
"O c #3A3A35",
"+ c #3D3E39",
"@ c #403F3B",
"# c #3F403B",
"$ c #42423D",
"% c #464541",
"& c #484743",
"* c #474843",
"= c #4B4A45",
"- c #4E4D49",
"; c #504F4A",
": c #53524D",
"> c #565651",
", c #595752",
"< c #5C5A55",
"1 c #5E5D58",
"2 c #615E5A",
"3 c #64635D",
"4 c #676560",
"5 c #696661",
"6 c #6C6A64",
"7 c #6F6D68",
"8 c #706D67",
"9 c #716E69",
"0 c #74726C",
"q c #78766F",
"w c #777670",
"e c #797671",
"r c #7D7A75",
"t c #7F7E78",
"y c #807D77",
"u c #827F79",
"i c #7F8077",
"p c #85827C",
"a c #89857F",
"s c #8A8681",
"d c #8D8A84",
"f c #908C87",
"g c #938E89",
"h c #95928B",
"j c #99948E",
"k c #9B9691",
"l c #9D9A93",
"z c #A19D96",
"x c #A39F98",
"c c #A2A097",
"v c #A5A29B",
"b c #A9A59E",
"n c #ABA89F",
"m c #AAA7A0",
"M c #ADAAA2",
"N c #B1AEA6",
"B c #B2AFA8",
"V c #B3B0A7",
"C c #B5B2AA",
"Z c #B9B6AE",
"A c #BBB8AF",
"S c #BAB7B0",
"D c #BDBAB2",
"F c #C2BFB7",
"G c #C4C1B9",
"H c #C8C4BC",
/* pixels */
"%+0MCZl-&6MCCCCs 5ncnNNnn2u3qxxbx>-cCCCC7-:151-+",
":tCCCCS0%lNCCCCSs=kvvvvmf=NjX8ffp$-hmCCCN->cSCS9",
"pCCCCCMr%pvMCCCBh+0xxMk9$$3;1,$$%4<rvvNNDs#kvMf%",
"CCCCMMs$$-kxMNmx-=+ed5:2upO0ZVnf=v4OkxvmMv=rMs%r",
"xxxzvsOic-,zzvv>-x7o$7xSDC,hACCZ:&:=&gllcm1=r#wn",
"zllzpOrDSB-1lv1=mDv%5CZBCM<hVCZc+>NC4%sll7%1O4xl",
"26q6#3SCBSv%3,=vSNC16MNNNz&jnmZeOxSCS0+6<>xD3&<<",
"2<#*-cCCCBSd+%kSCCD66Mnnj3%kxvv$7DBCBS0X3Vvp;=;>",
"ZZr%6nNCCCCN:9DBCBD62nd4%%%,dz6%vMCCCCM=30-=dkMZ",
"CCC>:zMCCCCv-sCCCBDq%,>0kml4#:OrmxMCCZn:=y;2vnvN",
"MNZkOfvMCCCl=kMCCCBq+eMDSCSDd$:gxmvMBMk-cHd$2dvv",
"zvnC31vvmMmp;vvNCmM4>mmCCCCCN:=fkxvvvmd4AVv$,=2f",
"3sznc=dzvcM61vxvmlM16nvCCCCZk#+3kjxvvM06ADp=VM:%",
"#+-qlr,llxv=5xzxvml=pvvNCCCA0:pXqlkzzl=0NM:pDZ6$",
"xd0,=-O0sr<O-eglls>o0lvmCCZM=jHhX6sp9:+rMd=vBh$p",
"ZSFCve:%+;34;OO>>X,3-jlvmMCr1SNDtO&%@&:3f=2cg:qC",
"CCVCCGt+emCCmxy=#kZS:7zlccv:jDCCv->cv6:##.#-%;vv",
"NCCCCC3=xvMCZZDM:hNZs+rklxe:BCCSg$fSSM*rMml<%rnv",
"mCCCZxX3zzMCCCNF02Ck5**=39&tNBCC,6SVZk=MZCDc$gnv",
"vmNCZ3X2jjnNBNDv:#1##iNj<O&zvNCd=vCVS63SVCZj;hkv",
"vvcMdOe%sjlxnMp@%3w7+wVADd%emvn;3bMVv=iVCVAs1kgl",
"lvnv&yHp>ljxj<@0cCSF6OkmCm:+qx6O3zcl0$lbNNM7:lkk",
"gkx>5FBC:9d2@2zSCCCCv#>jp:-3+;&1*-:$#:gkd7>$O:0s",
"&-%-NCCSpO$=smBCCCCCc-$$1pmZdOdn-9pr0--$#*>34$%#",
"hu=qNCNMd-=rzlMBCCNm9+6jCACCD0=>pDSSDe*smMCCS6=e",
"CGu3vMnx:$%-glvvmvvh+rNSCCCCCM=3BCCBSp3CCCCCD6=v",
"MCx-lvl--hv=;zxvvvv;>xmBCCZCCC3-zMCCDs6MNCCCC,3N",
"42>#ed%3CZAb@4zzvv2+0xxBCCCCCv:+pmmBZr6mmMVCv:;1",
"333;@$6SCCVSk rlx8==pxxnNBCNCd$6<vvnNq4vcvvme+>2",
"SFDn;$lCVCCCBr.u9O&O&dxvvvvvN,3C,elha@OqjcmuX9mZ",
"BCNDd hMCCNvxm3X+:kh3$<szvxna#cVh=,+;50:%<3+-zCC",
"CCCCn&pxnvvvvvk&=vDSDv3+>3qr:$1px3$smSDCk5@%9vBC",
"CCSBD22xlxxvmvk&pVCCVZZ,$:3:%392:=:vCCCCZGrodxNC",
"CCCCBy$gjkhgdu4@acMCCCM-pZCZ<9ZZv0&hVCCCCZr=hzvN",
"NCCCmk@&=&@+@%=&;jcbbVp;CCVDe3MMZF63mMCCNZ0>llvv",
"xmBMmy+59yflxmNg$,klvv-0CCCDj3vnMBN;emmmvC6<zhbv",
"vvxvz%2NCSSSCCSSc$3kxe#jbCCNk>hxnvBd+uclgu&2zgjz",
"zxxm6$zMBBBBCCBNNg 6f=1lvbnvv,2uut91%&-=@O$&yjkk",
"gkxu.tzzvmNNBNmvl1$-+%1hzvvzx1+=&%&>--3hdr8-O:8a",
";1<Ooegzvvvmvvvd:#pCh6%*,123:*:hvNMCd#lCDDZMr@$%",
"vlfi4#-19usjzg2Oo#lNNd#**%4Ms--fmNCCD5wvmNNSx+gm",
"kcMCj%<;+2q:;@>sv-,4=#24:o6Sh%#-dzNMBl,kxvmMrOsj",
"1>>::#jC43k=3lSSDv%%,vZCC7%f4cg$@<9gxB4wmls2@<22",
"Mmk5#7CCC8+8mBCCCC4&vZCCZh%=kSDh@yr;<r6@3;+%6mZB",
"CCDc+fMCCC2>lnMBCv%pZNCCZh#wCCNDe5CM9-=1el2&jBZB",
"CCC7#5vvCCr$3kvvM71CCCCCZf*lvCCZN:fBB1<mSF32xmBB",
"mNf#>+0nvk=*$%9kd*kZCCCCCr>cvMCCC<<6%@-8jx<exxvm",
"jf*;lk%ul:*7hd;%%7mMZCCCMw#rcvmmm4$;9r8;&>%;5esj"
};
